<svg xmlns="http://www.w3.org/2000/svg" width="598.796" height="581.955" viewBox="0 0 598.796 581.955">
  <g id="undraw_designer_re_5v95_1_" data-name="undraw_designer_re_5v95 (1)" transform="translate(0 0)">
    <path id="Path_1" data-name="Path 1" d="M771.782,231.694a283.366,283.366,0,0,0-18.624-29.227q-7.146-9.843-15.1-19.029h-.013a285.392,285.392,0,0,0-31.217-30.9q-3.433-2.916-6.96-5.713A283.535,283.535,0,0,0,629.988,106l.223,36.716,2.4,418.54H424.228L412.509,143.5l.873-36.13c-102.166,42.969-173.9,144-173.9,261.783A284.1,284.1,0,0,0,248.71,441.2a279.23,279.23,0,0,0,9.415,29.333q1.99,5.225,4.2,10.357c.71,1.665,1.433,3.317,2.183,4.963.962,2.15,1.964,4.293,2.992,6.409q1.194,2.5,2.455,4.963,1.622,3.235,3.351,6.416c.889,1.665,1.8,3.317,2.734,4.963A285.03,285.03,0,0,0,332.721,579.5q9.644,8.748,20.07,16.587a283.925,283.925,0,0,0,341.124,0q5.673-4.259,11.113-8.8,3.613-3.006,7.106-6.124c.617-.551,1.234-1.1,1.845-1.659A285.065,285.065,0,0,0,767.1,514.737a278.553,278.553,0,0,0,14.384-27.309q1.7-3.7,3.3-7.471a279.957,279.957,0,0,0,12.328-35.423q.766-2.8,1.48-5.613v-.007c.08-.325.166-.657.245-.982.491-1.977.962-3.968,1.413-5.958v-.007q2.189-9.624,3.7-19.48c.126-.843.252-1.685.372-2.528.046-.305.093-.61.126-.916v-.007q1.075-7.613,1.745-15.34,1.035-12.132,1.042-24.542a282.568,282.568,0,0,0-35.443-137.461Z" transform="translate(-208.429 -71.072)" fill="#f2f2f2"/>
    <path id="Path_2" data-name="Path 2" d="M889.193,662.38c16.8-22.7,23.264-54.681,10.194-79.719a130.132,130.132,0,0,1-61.611,64.7c-10.636,5.214-23.009,9.907-27.932,20.681-3.063,6.7-2.48,14.62-.018,21.566s6.651,13.128,10.8,19.224l.218,1.827C846.932,699.844,872.392,685.083,889.193,662.38Z" transform="translate(-353.719 -192.94)" fill="#e6e6e6"/>
    <path id="Path_3" data-name="Path 3" d="M903.44,582.706a111.227,111.227,0,0,1-23.138,64.4A47.9,47.9,0,0,1,869.566,657.6a27.471,27.471,0,0,1-13.735,4.517c-4.563.327-9.269.133-13.674,1.564a16.821,16.821,0,0,0-10.064,9.379c-2.439,5.383-2.8,11.321-2.947,17.139-.166,6.461-.236,13.174-3.283,19.047-.369.712.757,1.243,1.125.532,5.3-10.218,1.859-22.168,5.019-32.91,1.474-5.012,4.468-9.611,9.472-11.619,4.376-1.756,9.229-1.561,13.852-1.852a29.314,29.314,0,0,0,13.594-3.916,44.279,44.279,0,0,0,11.1-10.035,107.911,107.911,0,0,0,16.9-29.185,113.2,113.2,0,0,0,7.751-37.66c.025-.8-1.215-.685-1.24.108Z" transform="translate(-358.329 -192.784)" fill="#fff"/>
    <path id="Path_4" data-name="Path 4" d="M905.568,660.119a16.688,16.688,0,0,0,21.254-3.9c.5-.622-.438-1.435-.944-.812a15.452,15.452,0,0,1-19.778,3.589c-.692-.4-1.221.724-.532,1.125Z" transform="translate(-378.643 -211.481)" fill="#fff"/>
    <path id="Path_5" data-name="Path 5" d="M868.457,681.49a32.164,32.164,0,0,1,2.371-23.32c.367-.713-.759-1.244-1.125-.532a33.455,33.455,0,0,0-2.417,24.272C867.5,682.682,868.674,682.259,868.457,681.49Z" transform="translate(-368.619 -212.023)" fill="#fff"/>
    <path id="Path_6" data-name="Path 6" d="M922.95,614.937a9.446,9.446,0,0,1-6.17-6.5c-.208-.775-1.379-.351-1.172.419a10.585,10.585,0,0,0,6.81,7.208.643.643,0,0,0,.829-.3.626.626,0,0,0-.3-.829Z" transform="translate(-381.286 -199.424)" fill="#fff"/>
    <path id="Path_7" data-name="Path 7" d="M798.125,555.891c.116.488.232.975.341,1.471a124.407,124.407,0,0,1,2.957,19.961c.043.519.078,1.046.105,1.565a131.143,131.143,0,0,1-6.256,47.876,127.359,127.359,0,0,1-7.393,17.883c-4.025,7.961-9.023,16.273-10.15,24.846a21.845,21.845,0,0,0-.216,2.7l33.35,31.752c.112.034.217.076.33.111l1.274,1.329c.171-.287.342-.588.513-.875.1-.166.192-.339.292-.5.064-.113.128-.226.193-.324.022-.037.043-.075.057-.105.065-.1.114-.2.171-.287q1.443-2.521,2.856-5.071c.007-.008.007-.008.007-.022,7.142-12.972,13.264-26.654,17.115-40.831.116-.427.239-.86.339-1.3a121.525,121.525,0,0,0,3.511-19.519,107.462,107.462,0,0,0,.462-10.861,89.337,89.337,0,0,0-4.644-27.544c-5.949-17.7-17.493-33.308-33.949-41.621C798.967,556.3,798.553,556.1,798.125,555.891Z" transform="translate(-345.986 -186.096)" fill="#e6e6e6"/>
    <path id="Path_8" data-name="Path 8" d="M803.706,556.189a111.227,111.227,0,0,1,20.3,65.353,47.9,47.9,0,0,1-2.259,14.836,27.473,27.473,0,0,1-8.247,11.876c-3.447,3.009-7.321,5.687-9.976,9.481a16.82,16.82,0,0,0-2.389,13.547c1.294,5.766,4.582,10.723,7.966,15.459,3.757,5.259,7.744,10.661,8.846,17.185.134.79,1.352.537,1.219-.252-1.919-11.351-11.862-18.819-15.806-29.3-1.841-4.89-2.219-10.364.567-14.98,2.436-4.037,6.429-6.8,9.945-9.818a29.314,29.314,0,0,0,8.5-11.311,44.28,44.28,0,0,0,2.821-14.695,107.911,107.911,0,0,0-4.074-33.48,113.2,113.2,0,0,0-16.485-34.736c-.461-.653-1.383.184-.925.833Z" transform="translate(-351.896 -185.898)" fill="#fff"/>
    <path id="Path_9" data-name="Path 9" d="M832.5,628.565a16.688,16.688,0,0,0,14.621-15.911.623.623,0,0,0-1.243-.081,15.452,15.452,0,0,1-13.631,14.773c-.8.095-.538,1.313.252,1.219Z" transform="translate(-359.855 -200.444)" fill="#fff"/>
    <path id="Path_10" data-name="Path 10" d="M815.947,671.453A32.164,32.164,0,0,1,803.8,651.406c-.136-.79-1.355-.537-1.219.252a33.456,33.456,0,0,0,12.683,20.835c.639.486,1.319-.557.683-1.04Z" transform="translate(-352.392 -210.393)" fill="#fff"/>
    <path id="Path_11" data-name="Path 11" d="M818.408,586.243a9.446,9.446,0,0,1-8.841-1.477c-.632-.494-1.312.55-.684,1.04a10.585,10.585,0,0,0,9.777,1.655.643.643,0,0,0,.483-.736A.626.626,0,0,0,818.408,586.243Z" transform="translate(-353.943 -193.445)" fill="#fff"/>
    <path id="Path_12" data-name="Path 12" d="M211.016,491.359c-14.9-23.993-18.743-56.391-3.682-80.284a130.132,130.132,0,0,0,56.149,69.5c10.177,6.062,22.127,11.744,26.159,22.882,2.508,6.931,1.284,14.773-1.735,21.5s-7.7,12.544-12.322,18.283l-.366,1.8C250.094,532.133,225.918,515.352,211.016,491.359Z" transform="translate(-197.764 -149.071)" fill="#e6e6e6"/>
    <path id="Path_13" data-name="Path 13" d="M210.878,411.161a111.227,111.227,0,0,0,17.828,66.071,47.9,47.9,0,0,0,9.848,11.324,27.472,27.472,0,0,0,13.322,5.618c4.522.7,9.228.886,13.5,2.67a16.821,16.821,0,0,1,9.269,10.166c1.993,5.563,1.868,11.51,1.544,17.322-.36,6.453-.836,13.15,1.724,19.251.31.739-.855,1.177-1.165.439-4.454-10.615-.052-22.245-2.328-33.209-1.062-5.116-3.672-9.942-8.5-12.351-4.219-2.106-9.071-2.305-13.656-2.971a29.315,29.315,0,0,1-13.231-5.008,44.283,44.283,0,0,1-10.247-10.9,107.91,107.91,0,0,1-14.477-30.462,113.2,113.2,0,0,1-4.664-38.165c.04-.8,1.267-.584,1.227.209Z" transform="translate(-200.768 -148.911)" fill="#fff"/>
    <path id="Path_14" data-name="Path 14" d="M222.081,489.744a16.688,16.688,0,0,1-20.866-5.616c-.452-.661.553-1.4,1.006-.733a15.452,15.452,0,0,0,19.421,5.184c.723-.346,1.158.821.439,1.165Z" transform="translate(-198.617 -167.494)" fill="#fff"/>
    <path id="Path_15" data-name="Path 15" d="M263.106,514.531a32.164,32.164,0,0,0-.468-23.436c-.308-.74.858-1.179,1.165-.439a33.455,33.455,0,0,1,.437,24.388c-.28.752-1.412.235-1.134-.513Z" transform="translate(-214.337 -169.32)" fill="#fff"/>
    <path id="Path_16" data-name="Path 16" d="M213.031,443.867a9.446,9.446,0,0,0,6.678-5.979c.27-.755,1.4-.237,1.134.513a10.585,10.585,0,0,1-7.373,6.63.643.643,0,0,1-.8-.363.626.626,0,0,1,.363-.8Z" transform="translate(-201.564 -155.832)" fill="#fff"/>
    <path id="Path_17" data-name="Path 17" d="M322.3,394.606c-.155.477-.31.953-.459,1.438a124.406,124.406,0,0,0-4.569,19.655c-.085.514-.163,1.036-.232,1.552a131.144,131.144,0,0,0,2.345,48.226A127.351,127.351,0,0,0,325.3,483.9c3.365,8.262,7.671,16.952,8.1,25.589a21.842,21.842,0,0,1,0,2.7l-35.82,28.937c-.114.025-.223.058-.337.083l-1.377,1.221c-.147-.3-.293-.614-.441-.914-.086-.174-.164-.354-.25-.527-.055-.118-.109-.236-.166-.339-.018-.039-.036-.079-.048-.11-.056-.1-.1-.2-.147-.3q-1.233-2.63-2.434-5.286c-.007-.008-.007-.008-.005-.023-6.064-13.51-11.054-27.644-13.74-42.087-.081-.435-.168-.877-.233-1.325a121.523,121.523,0,0,1-1.913-19.74,107.443,107.443,0,0,1,.423-10.862,89.341,89.341,0,0,1,6.867-27.076c7.368-17.162,20.142-31.776,37.219-38.724C321.423,394.947,321.853,394.775,322.3,394.606Z" transform="translate(-217.886 -144.86)" fill="#e6e6e6"/>
    <path id="Path_18" data-name="Path 18" d="M329,394.923A111.227,111.227,0,0,0,303.46,458.41a47.9,47.9,0,0,0,1.045,14.971,27.472,27.472,0,0,0,7.254,12.507c3.191,3.279,6.834,6.263,9.173,10.26a16.821,16.821,0,0,1,1.28,13.7c-1.758,5.642-5.438,10.315-9.2,14.761-4.172,4.936-8.584,10-10.214,16.409-.2.777-1.392.425-1.194-.351,2.835-11.158,13.352-17.793,18.135-27.917,2.232-4.724,3.054-10.149.652-14.977-2.1-4.222-5.855-7.3-9.114-10.594a29.314,29.314,0,0,1-7.549-11.965,44.28,44.28,0,0,1-1.617-14.876A107.908,107.908,0,0,1,308.9,427.3a113.2,113.2,0,0,1,19.254-33.281c.512-.613,1.363.3.854.906Z" transform="translate(-224.307 -144.658)" fill="#fff"/>
    <path id="Path_19" data-name="Path 19" d="M299.648,464.41a16.688,16.688,0,0,1-13.279-17.047.623.623,0,0,1,1.245.021A15.452,15.452,0,0,0,300,463.215C300.784,463.374,300.429,464.568,299.648,464.41Z" transform="translate(-220.413 -158.197)" fill="#fff"/>
    <path id="Path_20" data-name="Path 20" d="M312.684,508.894A32.164,32.164,0,0,0,326.421,489.9c.2-.776,1.394-.425,1.194.351a33.455,33.455,0,0,1-14.334,19.735c-.676.432-1.269-.663-.6-1.092Z" transform="translate(-227.069 -169.113)" fill="#fff"/>
    <path id="Path_21" data-name="Path 21" d="M318.749,423.768a9.446,9.446,0,0,0,8.932-.753c.67-.441,1.263.655.6,1.092a10.585,10.585,0,0,1-9.879.855.643.643,0,0,1-.422-.773.626.626,0,0,1,.772-.422Z" transform="translate(-228.493 -152.097)" fill="#fff"/>
    <circle id="Ellipse_1" data-name="Ellipse 1" cx="39.439" cy="39.439" r="39.439" transform="translate(250.434 18.495)" fill="#ff6584"/>
    <path id="Path_22" data-name="Path 22" d="M705.328,123.928a144.923,144.923,0,0,0-11.239-10.669,85.964,85.964,0,0,0-25.67-15.545,59.2,59.2,0,0,0-11.014-2.9c-.451-.073-.9-.146-1.347-.206a.5.5,0,0,0-.1,0,1.2,1.2,0,0,0-.212-.04c-.922-.119-1.845-.212-2.773-.279a48.059,48.059,0,0,0-14.889,1.34,49.513,49.513,0,0,0-8.227,2.866,73.642,73.642,0,0,0-7.716,4.372,46.371,46.371,0,0,1-4.114,2.223,51.307,51.307,0,0,1-12.938,4.14,58.09,58.09,0,0,1-9.156.9,22.165,22.165,0,0,0-7.71,1.108,18.475,18.475,0,0,0-11.259,12.195,1.188,1.188,0,0,0,.531,1.307c.683.491,1.347,1.048,2.07,1.486a6.5,6.5,0,0,0,2.017.551q1.712.358,3.43.7,6.32,1.254,12.693,2.223,12.819,1.941,25.783,2.734a1.29,1.29,0,0,0,.159.013,290.176,290.176,0,0,0,29.326.285c1.48-.06,2.953-.133,4.432-.219q9.246-.518,18.445-1.632,8.509-1.035,16.952-2.568,6.031-1.095,12.016-2.442a1.175,1.175,0,0,0,.511-1.944Z" transform="translate(-294.703 -68.053)" fill="#e6e6e6"/>
    <path id="Path_23" data-name="Path 23" d="M595.2,194.579a128.822,128.822,0,0,0-18.783-16.534c-2.249-1.579-4.565-3.065-6.947-4.425a73.617,73.617,0,0,0-9.076-4.439c-.7-.285-1.4-.557-2.1-.816a58.793,58.793,0,0,0-12.361-3.105c-.033-.007-.066,0-.1-.007l-.206-.04a45.663,45.663,0,0,0-6.17-.378c-1.48,0-2.966.08-4.439.226a49.08,49.08,0,0,0-7.059,1.221c-1.148.285-2.289.617-3.41,1a48.724,48.724,0,0,0-4.81,1.871c-.027.013-.046.02-.073.033a71.674,71.674,0,0,0-7.643,4.339c-.053.033-.113.066-.166.1a48.214,48.214,0,0,1-8.811,4.127,53.661,53.661,0,0,1-8.081,2.136,57.225,57.225,0,0,1-9.156.9,21.955,21.955,0,0,0-7.7,1.115,18.485,18.485,0,0,0-11.266,12.195,1.2,1.2,0,0,0,.531,1.307c.683.491,1.353,1.042,2.07,1.48a6.366,6.366,0,0,0,2.017.551c1.141.239,2.282.478,3.43.7q6.32,1.254,12.7,2.216,8.748,1.324,17.569,2.117,4.18.388,8.367.637,10.738.647,21.5.5,2.219-.03,4.439-.1,13.177-.388,26.274-1.977a289,289,0,0,0,28.961-5.009,1.17,1.17,0,0,0,.511-1.937Z" transform="translate(-266.547 -86.115)" fill="#e6e6e6"/>
    <path id="Path_24" data-name="Path 24" d="M495.3,62.411l34.745,480.137-69.489,6.168V68.52C468.833,62.052,480.719,61.04,495.3,62.411Z" transform="translate(-264.95 -59.793)" fill="#ccc"/>
    <path id="Path_25" data-name="Path 25" d="M725.713,62.411,690.968,542.548l69.489,6.168V68.52C752.177,62.052,740.291,61.04,725.713,62.411Z" transform="translate(-323.859 -59.793)" fill="#ccc"/>
    <path id="Path_26" data-name="Path 26" d="M701.913,68.013c-2.156-5.287-6.741-8.937-12.042-8.937H468.95c-7.371,0-13.363,7.073-13.363,15.774V552.068a17.052,17.052,0,0,0,4.6,11.905,12.66,12.66,0,0,0,5.786,3.47,11.044,11.044,0,0,0,2.972.4H689.871a11.043,11.043,0,0,0,2.972-.4c5.945-1.6,10.39-7.879,10.39-15.375V74.851a18.119,18.119,0,0,0-1.321-6.838ZM698.8,552.068c0,5.812-4.007,10.542-8.93,10.542H468.95c-4.08,0-7.537-3.25-8.592-7.676a12.246,12.246,0,0,1-.338-2.867V74.851c0-5.812,4.008-10.534,8.93-10.534H689.871a7.577,7.577,0,0,1,2.654.478c3.629,1.331,6.277,5.334,6.277,10.057Z" transform="translate(-263.68 -59.077)" fill="#ccc"/>
    <rect id="Rectangle_3" data-name="Rectangle 3" width="243.212" height="4.435" transform="translate(194.124 145.057)" fill="#ccc"/>
    <rect id="Rectangle_4" data-name="Rectangle 4" width="243.212" height="4.435" transform="translate(194.124 53.496)" fill="#ccc"/>
    <rect id="Rectangle_5" data-name="Rectangle 5" width="243.212" height="4.435" transform="translate(194.124 218.982)" fill="#ccc"/>
    <rect id="Rectangle_6" data-name="Rectangle 6" width="4.435" height="279.828" transform="translate(268.614 1.99)" fill="#ccc"/>
    <rect id="Rectangle_7" data-name="Rectangle 7" width="4.435" height="279.828" transform="translate(358.412 1.99)" fill="#ccc"/>
    <path id="Path_27" data-name="Path 27" d="M715.661,705.353H424.4a19.981,19.981,0,0,0-19.958,19.958,19.757,19.757,0,0,0,1.44,7.424,19.959,19.959,0,0,0,18.518,12.54H715.661a19.959,19.959,0,0,0,17.224-9.886,19.285,19.285,0,0,0,1.3-2.654,19.757,19.757,0,0,0,1.44-7.424A19.987,19.987,0,0,0,715.661,705.353Z" transform="translate(-250.604 -224.308)" fill="#ccc"/>
    <rect id="Rectangle_8" data-name="Rectangle 8" width="241.734" height="14.785" transform="translate(195.603 271.469)" fill="#ccc"/>
    <path id="Path_28" data-name="Path 28" d="M419.4,358.755h4.435a8.132,8.132,0,0,1,8.132,8.132h-20.7A8.132,8.132,0,0,1,419.4,358.755Z" transform="translate(-105.147 -91.722)" fill="#ccc"/>
    <circle id="ab6171fa-7d69-4734-b81c-8dff60f9761b" cx="45.812" cy="45.812" r="45.812" transform="translate(274.922 221.541)" fill="#ffb8b8"/>
    <path id="bf427902-b9bf-4946-b5d7-5c1c7e04535e" d="M557.9,349.2c.346-5.261,3.826-10.644,14.879-13.457,0,0,18.97-24.258,44.748-11.537,0,0,12.5-2.15,21.764,10.816,0,0,9.188-5.419,13.064,4.186,0,0,10.776,19.591,6.808,39.574s-6,22.477-6,22.477,5.057-41.334-24.068-38.468-52.573-7.376-59.168,15.049c-5.477,18.621-4.787,28.292-4.787,28.292s-18.314-18.576-12.087-33.2C556.238,365.447,557.365,357.314,557.9,349.2Z" transform="translate(-288.269 -125.918)" fill="#2f2e41"/>
    <path id="Path_29" data-name="Path 29" d="M461.292,690.624h253.4c-1.694-19.329-2.8-93.217-2.8-98.08,0-21.449-17.55-44.856-17.55-44.856l-6.282-3.472L635.6,527.848l-13.577-17.636a15.1,15.1,0,0,0-12.091-5.9l-42.888.322a15.143,15.143,0,0,0-10.171,4.031L530.312,533.3,491.36,551.9l-.066-.066-.407.3-5.781,4.163-3.718,2.687s-9.755,11.7-17.55,46.8C462.664,611.068,461.841,679.412,461.292,690.624Z" transform="translate(-265.139 -172.908)" fill="#ff9a9e"/>
    <path id="Path_30" data-name="Path 30" d="M749.571,742.14c-.61.557-1.228,1.108-1.845,1.659q-3.5,3.115-7.106,6.124-5.444,4.538-11.113,8.8H388.383q-10.42-7.823-20.07-16.587Z" transform="translate(-241.367 -233.713)" fill="#ccc"/>
    <path id="Path_31" data-name="Path 31" d="M471.7,684.082H346.3l2.654-12.606H469.047Z" transform="translate(-88.538 -171.674)" fill="#2f2e41"/>
    <path id="Path_32" data-name="Path 32" d="M849.286,674.4h-32.63a5.04,5.04,0,0,0-3.868,1.791,7.318,7.318,0,0,0-1.38-.133,7.74,7.74,0,1,0,0,15.479,7.653,7.653,0,0,0,3.369-.782l.545,6.687,2.163,26.433a4.822,4.822,0,0,0,.411.949,5.087,5.087,0,0,0,4.465,2.654H843.58a5.105,5.105,0,0,0,4.472-2.654,5.234,5.234,0,0,0,.4-.949L854.163,681a5.1,5.1,0,0,0-4.877-6.6Zm-37.878,14.928a5.53,5.53,0,0,1,0-11.06c.1,0,.192.027.292.033a5.066,5.066,0,0,0,.08,2.7l2.335,7.59a5.44,5.44,0,0,1-2.707.736Z" transform="translate(-352.673 -216.393)" fill="#3f3d56"/>
    <path id="Path_33" data-name="Path 33" d="M692.692,485.931H486.136a6.705,6.705,0,0,0-6.695,6.695V632.01a6.7,6.7,0,0,0,6.695,6.695H692.692a6.7,6.7,0,0,0,6.695-6.695V492.626a6.705,6.705,0,0,0-6.695-6.695Z" transform="translate(-269.779 -168.209)" fill="#3f3d56"/>
    <path id="Path_34" data-name="Path 34" d="M640.957,635.977H592.636a2.578,2.578,0,0,0-2.574,2.581v76.334h53.477V638.558a2.58,2.58,0,0,0-2.581-2.581Zm-24,43.372a5.733,5.733,0,0,1-5.706-5.706v-8.8a5.706,5.706,0,0,1,11.412,0v8.8a5.733,5.733,0,0,1-5.706,5.706Z" transform="translate(-298.061 -206.571)" fill="#2f2e41"/>
    <path id="Path_35" data-name="Path 35" d="M589.839,738.717v7.365a1.443,1.443,0,0,0,1.44,1.44h50.929a1.447,1.447,0,0,0,1.44-1.44v-7.365Z" transform="translate(-298.004 -232.838)" fill="#3f3d56"/>
    <circle id="Ellipse_2" data-name="Ellipse 2" cx="3.261" cy="3.261" r="3.261" transform="translate(415.259 455.822)" fill="#2f2e41"/>
    <path id="Path_36" data-name="Path 36" d="M523.074,669.493a1.141,1.141,0,0,0-1.141,1.141v5.872a1.141,1.141,0,0,0,2.282,0v-5.872a1.141,1.141,0,0,0-1.141-1.141Z" transform="translate(-280.643 -215.14)" fill="#2f2e41"/>
    <path id="Path_37" data-name="Path 37" d="M531.4,669.493a1.141,1.141,0,0,0-1.141,1.141v5.872a1.141,1.141,0,0,0,2.282,0v-5.872A1.141,1.141,0,0,0,531.4,669.493Z" transform="translate(-282.771 -215.14)" fill="#2f2e41"/>
    <path id="Path_38" data-name="Path 38" d="M539.725,669.493a1.141,1.141,0,0,0-1.141,1.141v5.872a1.141,1.141,0,0,0,2.282,0v-5.872a1.141,1.141,0,0,0-1.141-1.141Z" transform="translate(-284.9 -215.14)" fill="#2f2e41"/>
    <path id="Path_39" data-name="Path 39" d="M548.051,669.493a1.141,1.141,0,0,0-1.141,1.141v5.872a1.141,1.141,0,0,0,2.282,0v-5.872A1.141,1.141,0,0,0,548.051,669.493Z" transform="translate(-287.029 -215.14)" fill="#2f2e41"/>
    <circle id="Ellipse_3" data-name="Ellipse 3" cx="17.251" cy="17.251" r="17.251" transform="translate(248.716 474.589)" fill="#ffb8b8"/>
    <circle id="Ellipse_4" data-name="Ellipse 4" cx="17.251" cy="17.251" r="17.251" transform="translate(369.23 477.907)" fill="#ffb8b8"/>
    <path id="Path_40" data-name="Path 40" d="M940.74,442.155c-1.7-2.819-3.725-5.83-6.888-6.75-3.663-1.066-7.427,1.052-10.619,3.142A309.458,309.458,0,0,0,895.7,458.836l.01.109c6.85-.472,12.534,17.741,19.384,17.269,4.949-.341,11.233-19.415,15.606-21.756,1.66-.888,3.277-2.075,5.158-2.158,2.336-.1,4.374,1.529,5.975,3.234,9.47,10.085,12.211,25.506,22.836,34.366a337.181,337.181,0,0,0-23.923-47.745Z" transform="translate(-376.201 -155.219)" fill="#3f3d56"/>
    <path id="Path_41" data-name="Path 41" d="M951.156,464.389q7.494,13.535,15.9,26.533v.007c-.033.305-.08.61-.126.916q-1.015-1.553-2.01-3.118-7.544-11.833-14.338-24.118-3.224-5.842-6.29-11.777-2.369-4.6-4.638-9.249c-.431-.889-.849-1.778-1.267-2.674-.982-2.1-1.951-4.206-2.986-6.277a17.242,17.242,0,0,0-4.79-6.416,6.535,6.535,0,0,0-3.4-1.314,9.506,9.506,0,0,0-4.93,1.413,158.652,158.652,0,0,0-31.2,21.517,162.6,162.6,0,0,0-25.345,28.138c-.226.318-.756.013-.531-.312.9-1.261,1.8-2.5,2.727-3.735a163.369,163.369,0,0,1,41.7-38.894q4.05-2.627,8.26-5.009c1.413-.8,2.833-1.592,4.279-2.336a10.435,10.435,0,0,1,4.538-1.407c5.507-.086,8.36,6.151,10.317,10.344q.916,1.98,1.864,3.954,3.573,7.464,7.424,14.809Q948.674,459.914,951.156,464.389Z" transform="translate(-368.389 -152.958)" fill="#3f3d56"/>
    <path id="Path_42" data-name="Path 42" d="M882.265,450.319c-.32-.357-.638-.713-.96-1.07-2.539-2.808-5.263-5.583-8.75-7.193a12.7,12.7,0,0,0-5.318-1.233,15.176,15.176,0,0,0-5.522,1.2c-.831.332-1.644.709-2.445,1.111-.915.461-1.814.952-2.708,1.447q-2.519,1.394-4.972,2.91-4.881,3.017-9.457,6.494-2.372,1.8-4.646,3.725-2.115,1.785-4.144,3.666c-.289.267-.721-.165-.432-.432.357-.332.717-.662,1.078-.988q1.528-1.381,3.105-2.71,2.876-2.427,5.9-4.666,4.7-3.484,9.732-6.5,2.513-1.5,5.094-2.881c.52-.277,1.045-.548,1.577-.8a25.14,25.14,0,0,1,3.749-1.526,13.338,13.338,0,0,1,5.663-.556,14.741,14.741,0,0,1,5.224,1.807c3.423,1.913,6.078,4.872,8.662,7.759C882.957,450.178,882.528,450.612,882.265,450.319Z" transform="translate(-360.125 -156.524)" fill="#3f3d56"/>
    <path id="Path_43" data-name="Path 43" d="M864.281,465.367a3.942,3.942,0,0,1-2.445-.7c-1.895-1.435-1.845-4.882.152-10.539a11.9,11.9,0,0,1,6.44-6.922,11.024,11.024,0,0,1,8.879-.053q.367.159.724.343h0a26.145,26.145,0,0,1,4.54,3.221,29.994,29.994,0,0,0,3.781,2.793l.445.26-.421.3C875.626,461.635,868.339,465.367,864.281,465.367Z" transform="translate(-367.191 -158.063)" fill="#3f3d56"/>
    <path id="Path_44" data-name="Path 44" d="M911.776,407.212a15.263,15.263,0,0,1-14.971-12.3,15.26,15.26,0,1,0,18,12,15.325,15.325,0,0,1-3.029.3Z" transform="translate(-373.357 -144.938)" fill="#3f3d56"/>
    <circle id="Ellipse_5" data-name="Ellipse 5" cx="22.773" cy="22.773" r="22.773" transform="translate(107.154 241.278)" fill="#3f3d56" opacity="0.74"/>
    <circle id="Ellipse_6" data-name="Ellipse 6" cx="22.773" cy="22.773" r="22.773" transform="translate(129.926 241.278)" fill="#ff9a9e" opacity="0.74"/>
    <circle id="Ellipse_7" data-name="Ellipse 7" cx="22.773" cy="22.773" r="22.773" transform="translate(118.733 223.128)" fill="#ff6584" opacity="0.74"/>
    <rect id="Rectangle_9" data-name="Rectangle 9" width="61.312" height="1.327" transform="translate(142.559 257.752) rotate(-17.441)" fill="#3f3d56"/>
    <circle id="Ellipse_8" data-name="Ellipse 8" cx="2.654" cy="2.654" r="2.654" transform="translate(198.771 237.142)" fill="#3f3d56"/>
    <path id="Path_45" data-name="Path 45" d="M944.224,539.834a90.409,90.409,0,0,0,11.9,7.643c-.08.325-.166.657-.245.982-.524-.245-1.035-.5-1.546-.77-4.333-2.269-8.061-5.354-12.129-8.035a26.169,26.169,0,0,0-6.542-3.278,21.584,21.584,0,0,0-7.477-.876c-10.529.518-19.553,6.8-29.339,9.966-4.79,1.553-9.886,2.382-14.882,1.407s-9.435-3.629-13.847-6.031c-4.352-2.375-9.1-4.764-14.179-4.764-4.14.007-8.493,1.665-10.709,5.328a.5.5,0,0,1-.856-.5,10.442,10.442,0,0,1,1.811-2.263,14.513,14.513,0,0,1,11.054-3.5c5.056.411,9.667,2.8,14.039,5.2,4.638,2.548,9.388,5.288,14.749,5.845,5.295.557,10.536-.829,15.446-2.694,9.508-3.616,18.889-9.64,29.465-8.97C935.924,534.838,940.2,537,944.224,539.834Z" transform="translate(-363.064 -180.618)" fill="#3f3d56"/>
    <path id="Path_46" data-name="Path 46" d="M407.81,283.045v1.347a6.988,6.988,0,0,0-1.353-.133h-6.94v14.9a8.325,8.325,0,0,1-8.32,8.32H380.939v2.3a6.953,6.953,0,0,0,.537,2.681h-1.42a8.175,8.175,0,0,1-.444-2.681v-2.3h-5.64v-1.327h5.64v-14.9a8.325,8.325,0,0,1,8.32-8.32H398.19v-2.322h1.327v2.322h6.94A8.281,8.281,0,0,1,407.81,283.045Z" transform="translate(-242.814 -115.715)" fill="#ff9a9e"/>
    <path id="Path_47" data-name="Path 47" d="M387.892,269.467H369.368a8.325,8.325,0,0,0-8.32,8.32v18.524a8.325,8.325,0,0,0,8.32,8.32h18.524a8.325,8.325,0,0,0,8.32-8.32V277.761A8.323,8.323,0,0,0,387.892,269.467Zm6.993,26.845a7,7,0,0,1-6.993,6.993H369.368a7,7,0,0,1-6.993-6.993V277.787a7,7,0,0,1,6.993-6.993h18.524a7,7,0,0,1,6.993,6.967Z" transform="translate(-239.51 -112.867)" fill="#3f3d56"/>
    <path id="Path_48" data-name="Path 48" d="M381.55,306.952v1.327h1.327v-1.327Zm0,0v1.327h1.327v-1.327Zm28.2-23.109a8.28,8.28,0,0,0-1.353-.113H389.87a8.325,8.325,0,0,0-8.32,8.32v18.525a8.173,8.173,0,0,0,.445,2.68,8.323,8.323,0,0,0,7.876,5.64h18.525a8.325,8.325,0,0,0,8.32-8.32V292.049a8.32,8.32,0,0,0-6.967-8.207Zm5.64,26.732a7,7,0,0,1-6.993,6.993H389.87a7,7,0,0,1-6.993-6.993V292.049a7,7,0,0,1,6.993-6.993h18.525a7,7,0,0,1,6.993,6.993Zm-33.838-3.623v1.327h1.327v-1.327Z" transform="translate(-244.751 -116.513)" fill="#3f3d56"/>
    <path id="Path_49" data-name="Path 49" d="M336.205,547.3H257.516a2.071,2.071,0,0,0-2.07,2.063v4.664a279.232,279.232,0,0,0,9.415,29.333h71.344a2.061,2.061,0,0,0,2.063-2.063V549.365a2.066,2.066,0,0,0-2.063-2.063Z" transform="translate(-212.511 -183.9)" fill="#ff9a9e"/>
    <path id="Path_50" data-name="Path 50" d="M333.384,609.663H273.737c.71,1.665,1.433,3.317,2.183,4.963h57.464C336.622,614.672,336.589,609.617,333.384,609.663Z" transform="translate(-217.187 -199.843)" fill="#e4e4e4"/>
    <path id="Path_51" data-name="Path 51" d="M335.162,624.941H280.69q1.194,2.5,2.455,4.963h52.017C338.4,629.95,338.367,624.9,335.162,624.941Z" transform="translate(-218.965 -203.749)" fill="#e4e4e4"/>
    <path id="Path_52" data-name="Path 52" d="M337.156,640.229H288.489c.889,1.665,1.8,3.317,2.734,4.963h45.933C340.394,645.238,340.361,640.182,337.156,640.229Z" transform="translate(-220.959 -207.658)" fill="#e4e4e4"/>
    <path id="Path_53" data-name="Path 53" d="M899.982,229.333H899.6a7.6,7.6,0,0,1,3.39.8h-1.721a7,7,0,0,0-6.993,6.993v18.525a7,7,0,0,0,6.993,6.993h1.1a7.6,7.6,0,0,1-2.766.525h.378a7.665,7.665,0,0,0,7.656-7.657V236.989a7.665,7.665,0,0,0-7.656-7.656Z" transform="translate(-375.84 -102.606)" fill="#3f3d56"/>
    <path id="Path_54" data-name="Path 54" d="M899.982,229.333H899.6a7.6,7.6,0,0,1,3.39.8h-1.721a7,7,0,0,0-6.993,6.993v18.525a7,7,0,0,0,6.993,6.993h1.1a7.6,7.6,0,0,1-2.766.525h.378a7.665,7.665,0,0,0,7.656-7.657V236.989a7.665,7.665,0,0,0-7.656-7.656Z" transform="translate(-375.84 -102.606)" opacity="0.21"/>
    <path id="Path_55" data-name="Path 55" d="M834.019,229.333h-.378a7.6,7.6,0,0,1,3.39.8H835.31a7,7,0,0,0-6.993,6.993v18.525a7,7,0,0,0,6.993,6.993h1.1a7.6,7.6,0,0,1-2.766.525h.378a7.665,7.665,0,0,0,7.656-7.657V236.989a7.665,7.665,0,0,0-7.656-7.656Z" transform="translate(-358.975 -102.606)" fill="#ff9a9e"/>
    <path id="Path_56" data-name="Path 56" d="M834.019,229.333h-.378a7.6,7.6,0,0,1,3.39.8H835.31a7,7,0,0,0-6.993,6.993v18.525a7,7,0,0,0,6.993,6.993h1.1a7.6,7.6,0,0,1-2.766.525h.378a7.665,7.665,0,0,0,7.656-7.657V236.989a7.665,7.665,0,0,0-7.656-7.656Z" transform="translate(-358.975 -102.606)" opacity="0.21"/>
    <path id="Path_57" data-name="Path 57" d="M828.246,262.723a7,7,0,0,1-6.993-6.993V237.2a7,7,0,0,1,6.993-6.993h1.721a7.6,7.6,0,0,0-3.39-.8H808.051a7.665,7.665,0,0,0-7.656,7.656v18.525a7.665,7.665,0,0,0,7.656,7.656h18.525a7.6,7.6,0,0,0,2.766-.525Z" transform="translate(-351.836 -102.625)" fill="#ff9a9e"/>
    <path id="Path_58" data-name="Path 58" d="M894.208,262.723a7,7,0,0,1-6.993-6.993V237.2a7,7,0,0,1,6.993-6.993h1.721a7.6,7.6,0,0,0-3.39-.8H874.013a7.665,7.665,0,0,0-7.656,7.656v18.525a7.665,7.665,0,0,0,7.656,7.656h18.525a7.6,7.6,0,0,0,2.766-.525Z" transform="translate(-368.701 -102.625)" fill="#3f3d56"/>
    <path id="Path_59" data-name="Path 59" d="M932.947,235.6a283.389,283.389,0,0,1,18.624,29.227h-11.6a7.668,7.668,0,0,1-7.657-7.657V238.649a7.649,7.649,0,0,1,.63-3.045Z" transform="translate(-385.564 -104.209)" fill="#ff6584"/>
    <path id="Path_60" data-name="Path 60" d="M894.334,281.745l-6.489-9.72-4.744-7.106a2.64,2.64,0,0,0-4.717.683l-2,6.423-4.021,12.9a2.645,2.645,0,0,0,3.915,3.032l1.427-.882a1.981,1.981,0,0,1,3.012,1.506l1.307,14.265a2.649,2.649,0,0,0,2.627,2.4c.08,0,.159-.007.245-.013l2-.179a2.638,2.638,0,0,0,2.389-2.873l-1.347-14.729a1.978,1.978,0,0,1,2.8-1.977l.292.133a2.64,2.64,0,0,0,3.3-3.868Z" transform="translate(-370.207 -111.403)" fill="#ccc"/>
  </g>
</svg>
